<svg xmlns="http://www.w3.org/2000/svg" viewBox="0 0 38 32">
  <defs>
    <style>.cls-1{fill:#2b4457;}.cls-2{fill:#ffc93c;}</style>
  </defs>
  <g id="ICON_群" data-name="ICON 群">
    <path class="cls-1" d="M24.6,13.21c0,3.85-2.62,7-5.85,7s-5.84-3.12-5.84-7,2.61-7,5.84-7S24.6,9.36,24.6,13.21Z"/>
    <path class="cls-1"
          d="M13.84,13.54c0,.77-.41,1.39-.9,1.39S12,14.31,12,13.54s.41-1.39.91-1.39S13.84,12.77,13.84,13.54Z"/>
    <path class="cls-1"
          d="M25.64,13.54c0,.77-.41,1.39-.9,1.39s-.91-.62-.91-1.39.41-1.39.91-1.39S25.64,12.77,25.64,13.54Z"/>
    <polygon class="cls-1"
             points="17.93 23.67 17.02 22.09 17.93 20.52 19.75 20.52 20.66 22.09 19.75 23.67 17.93 23.67"/>
    <rect class="cls-1" x="17.93" y="23.81" width="1.8" height="3.33"/>
    <path class="cls-1"
          d="M31.05,25.64c-2.46-4.7-8.14-4.91-8.14-4.91l-3.06,5.52H17.77l-2.4-5.47c-5.58-.11-8.8,4.65-8.8,4.65V31H31.05Z"/>
    <path class="cls-2"
          d="M6.91,7.84A1.25,1.25,0,0,1,6.2,9.12,5.86,5.86,0,0,0,11.1,14C11,8.15,14.65,6,16.64,5.25A5.6,5.6,0,0,0,11.51,1c-2.74,0-5,2.4-5.41,5.54C6.55,6.57,6.91,7.14,6.91,7.84Z"/>
    <path class="cls-2"
          d="M6.06,9.15a.32.32,0,0,0,.14,0,1.25,1.25,0,0,0,.71-1.28c0-.7-.36-1.27-.81-1.3h0c-.47,0-.85.59-.85,1.31S5.59,9.15,6.06,9.15Z"/>
    <path class="cls-2"
          d="M11.69,14.38h-.95l-.85,1.48.85,1.47h1.71l.12-.22c0-.55,0-.5-.38-1.09A3.6,3.6,0,0,1,11.69,14.38Z"/>
    <rect class="cls-2" x="10.75" y="17.47" width="1.69" height="2.28"/>
    <path class="cls-2"
          d="M9.13,21.63a7.83,7.83,0,0,1,4.92-1.84,11.1,11.1,0,0,0-.94-1.07l-.57,1H10.59L8.34,14.63C3.11,14.53.09,19,.09,19v5.23h6.2A12.1,12.1,0,0,1,9.13,21.63Z"/>
    <path class="cls-2"
          d="M30.46,7.84a1.25,1.25,0,0,0,.71,1.28,5.86,5.86,0,0,1-4.88,4.94c.07-5.9-3.58-8-5.58-8.78A5.62,5.62,0,0,1,25.83,1c2.74,0,5,2.38,5.43,5.52C30.81,6.58,30.46,7.14,30.46,7.84Z"/>
    <path class="cls-2"
          d="M31.31,9.15a.32.32,0,0,1-.14,0,1.25,1.25,0,0,1-.71-1.28c0-.7.35-1.26.8-1.3h0c.47,0,.85.58.85,1.31S31.78,9.14,31.31,9.15Z"/>
    <path class="cls-2"
          d="M25.71,14.4h.94l.86,1.47-.85,1.48H25l-.13-.22c0-.56,0-.51.38-1.1A3.73,3.73,0,0,0,25.71,14.4Z"/>
    <rect class="cls-2" x="24.97" y="17.49" width="1.69" height="2.28" transform="translate(-0.06 0.09) rotate(-0.2)"/>
    <path class="cls-2"
          d="M28.28,21.64a7.76,7.76,0,0,0-4.92-1.82,12.85,12.85,0,0,1,.93-1.08l.58,1h1.95l2.23-5.14c5.23-.12,8.27,4.33,8.27,4.33v5.23l-6.19,0A12.4,12.4,0,0,0,28.28,21.64Z"/>
  </g>
</svg>
