<svg xmlns="http://www.w3.org/2000/svg" viewBox="0 0 31 39">
  <defs>
    <style>.cls-1{fill:#2b4457;}.cls-2{fill:#fff;}.cls-3{fill:#ffc93c;}</style>
  </defs>
  <g id="ICON_群" data-name="ICON 群">
    <g id="ICON_已測試" data-name="ICON 已測試">
      <path class="cls-1"
            d="M29.15,14.42c0,.73-1.5,1.32-1.61,2s1.13,1.74.91,2.41-1.84.79-2.16,1.42.54,2,.12,2.58-2,.18-2.49.69-.11,2.07-.68,2.49-1.95-.45-2.58-.12-.74,1.93-1.42,2.16-1.7-1-2.42-.92-1.29,1.61-2,1.61-1.32-1.5-2-1.61-1.75,1.13-2.42.92S9.58,26.23,9,25.91s-2,.53-2.58.12-.18-2-.68-2.49-2.07-.11-2.49-.69.44-1.94.11-2.58-1.93-.73-2.15-1.42,1-1.7.91-2.41-1.61-1.29-1.61-2,1.5-1.32,1.61-2S.94,10.66,1.16,10,3,9.2,3.31,8.57,2.78,6.56,3.2,6s2-.18,2.49-.69.1-2.06.68-2.48,1.94.44,2.58.11S9.69,1,10.37.78s1.7,1,2.42.91S14.08.08,14.8.08s1.33,1.5,2,1.61S18.57.56,19.24.78,20,2.61,20.66,2.93s2-.53,2.58-.11.17,2,.68,2.48S26,5.41,26.41,6,26,7.93,26.29,8.57s1.94.73,2.16,1.42-1,1.7-.91,2.41S29.15,13.7,29.15,14.42Z"/>
      <path class="cls-2" d="M25.07,14.52A10.27,10.27,0,1,1,14.9,4.15,10.26,10.26,0,0,1,25.07,14.52Z"/>
      <path class="cls-3" d="M23.48,14.5a8.68,8.68,0,1,1-8.6-8.75A8.68,8.68,0,0,1,23.48,14.5Z"/>
      <path class="cls-2"
            d="M21.89,12.82l-8.23,7.71S12,22,11,20.53L7.49,13.85s1.28-2.32,2.7-1l1.93,4.37,8.35-7.33S22.53,11,21.89,12.82Z"/>
      <path class="cls-1" d="M5.87,26.81,0,35.09,4.9,34.6l1.66,4.88,4.77-9.85S7.43,28.66,5.87,26.81Z"/>
      <path class="cls-1" d="M19.24,29.88l4.69,9,1.8-4.56,5.09.75-6.57-8.75S21.6,29.34,19.24,29.88Z"/>
    </g>
  </g>
</svg>
