<svg xmlns="http://www.w3.org/2000/svg" viewBox="0 0 38 30">
  <defs>
    <style>.cls-1{fill:#2b4457;}.cls-2{fill:#ffc93c;}</style>
  </defs>
  <g id="ICON_群" data-name="ICON 群">
    <path class="cls-1" d="M24.6,12.21c0,3.85-2.62,7-5.85,7s-5.84-3.12-5.84-7,2.61-7,5.84-7S24.6,8.36,24.6,12.21Z"/>
    <path class="cls-1"
          d="M13.84,12.54c0,.77-.41,1.39-.9,1.39S12,13.31,12,12.54s.41-1.39.91-1.39S13.84,11.77,13.84,12.54Z"/>
    <path class="cls-1"
          d="M25.64,12.54c0,.77-.41,1.39-.9,1.39s-.91-.62-.91-1.39.41-1.39.91-1.39S25.64,11.77,25.64,12.54Z"/>
    <polygon class="cls-1"
             points="17.93 22.67 17.02 21.09 17.93 19.52 19.75 19.52 20.66 21.09 19.75 22.67 17.93 22.67"/>
    <rect class="cls-1" x="17.93" y="22.81" width="1.8" height="3.33"/>
    <path class="cls-1"
          d="M31.05,24.64c-2.46-4.7-8.14-4.91-8.14-4.91l-3.06,5.52H17.77l-2.4-5.47c-5.58-.11-8.8,4.65-8.8,4.65V30H31.05Z"/>
    <path class="cls-2"
          d="M11.52,1a4.44,4.44,0,0,1,3.84,2.71,9.33,9.33,0,0,0-5.22,8.08,5,5,0,0,1-2.8-3.27,2.64,2.64,0,0,0,.57-1.68A2.55,2.55,0,0,0,7.21,5c.54-2.33,2.31-4,4.31-4m0-1c-2.75,0-5,2.4-5.42,5.54.45,0,.81.6.81,1.3A1.25,1.25,0,0,1,6.2,8.12,5.86,5.86,0,0,0,11.1,13C11,7.15,14.65,5,16.64,4.25A5.6,5.6,0,0,0,11.52,0Z"/>
    <path class="cls-2"
          d="M6.06,5.53c-.47,0-.85.59-.85,1.31s.38,1.31.85,1.31a.32.32,0,0,0,.14,0,1.25,1.25,0,0,0,.71-1.28c0-.7-.36-1.27-.81-1.3Z"/>
    <path class="cls-2"
          d="M11.69,13.38h-.95l-.85,1.48.85,1.47h1.71l.12-.22c0-.55,0-.5-.38-1.09a3.49,3.49,0,0,1-.5-1.64Z"/>
    <polygon class="cls-2" points="12.44 16.47 10.75 16.47 10.75 18.75 12.44 18.75 12.44 16.47 12.44 16.47"/>
    <path class="cls-2"
          d="M7.69,14.64l2,4.42a11.45,11.45,0,0,0-1.12.78c-.22.18-.43.34-.64.49a11,11,0,0,0-2.09,1.88H1.09V18.32a9.65,9.65,0,0,1,6.6-3.68m.47-1C3,13.63.09,18,.09,18v5.23h6.2a12.1,12.1,0,0,1,2.84-2.58,7.83,7.83,0,0,1,4.92-1.84,11.1,11.1,0,0,0-.94-1.07l-.57,1H10.59L8.34,13.63Z"/>
    <path class="cls-2"
          d="M25.85,0V1c2,0,3.75,1.68,4.3,4a2.52,2.52,0,0,0-.69,1.82A2.61,2.61,0,0,0,30,8.52a5,5,0,0,1-2.78,3.28A9.36,9.36,0,0,0,22,3.74,4.41,4.41,0,0,1,25.83,1l0-1m0,0h0a5.62,5.62,0,0,0-5.12,4.26c2,.73,5.65,2.88,5.58,8.78a5.86,5.86,0,0,0,4.88-4.94,1.25,1.25,0,0,1-.71-1.28c0-.7.35-1.26.8-1.3C30.85,2.41,28.58,0,25.85,0Z"/>
    <path class="cls-2"
          d="M31.3,5.53h0c-.45,0-.8.6-.8,1.3a1.25,1.25,0,0,0,.71,1.28.32.32,0,0,0,.14,0h0c.47,0,.85-.59.84-1.31s-.38-1.31-.85-1.31Z"/>
    <path class="cls-2"
          d="M26.65,13.4h-.94a3.73,3.73,0,0,1-.5,1.64c-.39.59-.37.54-.38,1.1l.13.22h1.7l.85-1.48-.86-1.47Z"/>
    <polygon class="cls-2" points="26.65 16.49 24.96 16.49 24.97 18.77 26.66 18.77 26.65 16.49 26.65 16.49"/>
    <path class="cls-2"
          d="M29.7,14.64a9.68,9.68,0,0,1,6.62,3.66v3.89l-4.7,0a11.43,11.43,0,0,0-2.1-1.88l-.64-.48a10.36,10.36,0,0,0-1.12-.78l1.93-4.43m-.44-1h-.21l-2.23,5.14H24.87l-.58-1a12.85,12.85,0,0,0-.93,1.08,7.76,7.76,0,0,1,4.92,1.82,12.4,12.4,0,0,1,2.86,2.57l6.19,0V18s-3-4.33-8.06-4.33Z"/>
  </g>
</svg>
