<svg xmlns="http://www.w3.org/2000/svg" viewBox="0 0 33 35">
  <defs>
    <style>.cls-1{fill:#ffc93c;}.cls-2{fill:#2b4457;}</style>
  </defs>
  <g id="ICON_群" data-name="ICON 群">
    <g id="ICON_收藏" data-name="ICON 收藏">
      <path class="cls-1"
            d="M23.78,33.59H8V17.75l.11-.07a17.67,17.67,0,0,0,6.62-8A16.71,16.71,0,0,0,16,5.24C16.19.75,17.41.08,18.12.08l.22,0h0c2.47,0,3.17,2.58,3.21,2.73.76,2.71-.3,7.79-.6,9.11h7.67a3.71,3.71,0,0,1,2.78,1.66c1,1.7.45,4,.28,4.63a4.07,4.07,0,0,1,1,3.34,3.93,3.93,0,0,1-1.8,2.29,3.4,3.4,0,0,1,.27,2.64A3,3,0,0,1,29.79,28a4.55,4.55,0,0,1-1.05,3.36c-1.71,2-4.82,2.2-4.95,2.21Z"/>
      <rect class="cls-2" x="0.43" y="16.7" width="5.92" height="17.87"/>
    </g>
  </g>
</svg>
