<svg xmlns="http://www.w3.org/2000/svg" viewBox="0 0 178.42 74.2"><defs><style>.cls-1,.cls-2{fill:#231815;}.cls-2{font-size:7.05px;font-family:MicrosoftSansSerif, Microsoft Sans Serif;}.cls-3{fill:#101b1d;}</style></defs><title>logo＿調設計</title><g id="圖層_4" data-name="圖層 4"><path class="cls-1" d="M53.89,37.53c.09,1.23,1.42,1.82,2.93,1.82a9.31,9.31,0,0,0,2.86-.41l.44,2a10.92,10.92,0,0,1-3.77.6c-3.53,0-5.55-1.88-5.55-4.85a5,5,0,0,1,5.25-5.11c3.37,0,4.64,2.41,4.64,4.77a5.14,5.14,0,0,1-.11,1.17Zm3.8-2a1.77,1.77,0,0,0-1.82-1.93,2,2,0,0,0-2,1.93Z"/><path class="cls-1" d="M65.11,37.53c.1,1.23,1.43,1.82,2.94,1.82a9.36,9.36,0,0,0,2.86-.41l.44,2a11,11,0,0,1-3.77.6c-3.53,0-5.55-1.88-5.55-4.85a5,5,0,0,1,5.24-5.11c3.38,0,4.65,2.41,4.65,4.77a5.8,5.8,0,0,1-.11,1.17Zm3.8-2a1.76,1.76,0,0,0-1.81-1.93,2,2,0,0,0-2,1.93Z"/><path class="cls-1" d="M77.09,35.84h0c.24-.41.5-.8.75-1.15L80,31.81h3.88l-3.73,3.87,4.26,5.67h-4l-2.51-3.92-.82.94v3H73.85V27.51h3.24Z"/><path class="cls-1" d="M88.75,28.21v5h5.34v-5h3.25V41.35H94.09v-5.5H88.75v5.5H85.51V28.21Z"/><path class="cls-1" d="M109.81,38.29c0,1.24,0,2.26.08,3.06h-2.8L106.94,40h-.07a3.78,3.78,0,0,1-3.25,1.56c-2.11,0-3.65-1.21-3.65-4.14V31.81h3.24v5.12c0,1.4.49,2.23,1.63,2.23a1.72,1.72,0,0,0,1.61-1,1.51,1.51,0,0,0,.12-.63V31.81h3.24Z"/><path class="cls-1" d="M112.33,41.35c0-.64.08-1.77.08-2.85v-11h3.24v5.43h0a3.8,3.8,0,0,1,3.15-1.35c2.5,0,4.32,1.9,4.29,4.82a4.76,4.76,0,0,1-4.76,5.15A3.48,3.48,0,0,1,115.26,40h-.05l-.13,1.33Zm3.32-4.05a2.12,2.12,0,0,0,.06.52,1.94,1.94,0,0,0,1.9,1.41c1.38,0,2.23-1,2.23-2.7,0-1.48-.72-2.65-2.22-2.65a1.94,1.94,0,0,0-1.9,1.46,2.43,2.43,0,0,0-.07.55Z"/><text class="cls-2" transform="translate(83.76 48.52) scale(1.09 1)">geekhub.tw</text><path class="cls-3" d="M47.67,43.26l-1.07.62-8.54,4.93a2.13,2.13,0,0,1-2.13,0l-8.54-4.93A2.14,2.14,0,0,1,26.32,42V32.17a2.14,2.14,0,0,1,1.07-1.85l8.54-4.93a2.13,2.13,0,0,1,2.13,0l8.54,4.93,1.07.62V25.8l-9.25-5.34a2.85,2.85,0,0,0-2.85,0L23.3,27.55A2.83,2.83,0,0,0,21.87,30V44.19a2.86,2.86,0,0,0,1.43,2.46l12.27,7.09a2.85,2.85,0,0,0,2.85,0l9.25-5.34Z"/><path class="cls-3" d="M36.34,32.45l3.86-2.23-2.49-1.44a1.46,1.46,0,0,0-1.43,0l-6.13,3.54a.39.39,0,0,0-.1.08l3.19,1.84Z"/><path class="cls-3" d="M44.56,34.08h0a1.59,1.59,0,0,0-1.6-1.6,1.54,1.54,0,0,0-.74.19l-4.59,2.64a.3.3,0,0,0-.16.27v1.11a.33.33,0,0,0,.15.27l1.61.93a.34.34,0,0,0,.31,0L41.12,37h0l.07,0h0l.15-.1h0v2.33a.77.77,0,0,1-.39.67l-3.39,1.95v3.68l.08,0,6.16-3.55a1.47,1.47,0,0,0,.74-1.28Z"/><path class="cls-3" d="M33,39.82a.71.71,0,0,1-.35-.62v-4l-3.19-1.83s0,.09,0,.14v7.08a1.41,1.41,0,0,0,.71,1.23l6.13,3.55h0l.1,0V41.79Z"/></g></svg>