<svg xmlns="http://www.w3.org/2000/svg" viewBox="0 0 154.25 74.2"><defs><style>.cls-1{font-size:7.05px;font-family:MicrosoftSansSerif, Microsoft Sans Serif;}.cls-1,.cls-2{fill:#231815;}.cls-3{fill:#101b1d;}</style></defs><title>logo＿調設計</title><g id="圖層_4" data-name="圖層 4"><text class="cls-1" transform="translate(120 41.34) scale(1.09 1)">.tw</text><path class="cls-2" d="M50.77,37.72c.1,1.24,1.43,1.82,2.94,1.82a9.37,9.37,0,0,0,2.86-.4l.44,2a11,11,0,0,1-3.77.61c-3.53,0-5.56-1.89-5.56-4.86a5,5,0,0,1,5.25-5.1c3.38,0,4.65,2.4,4.65,4.76a4.88,4.88,0,0,1-.12,1.17Zm3.8-2a1.76,1.76,0,0,0-1.81-1.93,2,2,0,0,0-2,1.93Z"/><path class="cls-2" d="M62,37.72c.1,1.24,1.42,1.82,2.94,1.82a9.37,9.37,0,0,0,2.86-.4l.44,2a11,11,0,0,1-3.78.61c-3.52,0-5.55-1.89-5.55-4.86a5,5,0,0,1,5.25-5.1c3.37,0,4.65,2.4,4.65,4.76a4.88,4.88,0,0,1-.12,1.17Zm3.8-2A1.77,1.77,0,0,0,64,33.76a2,2,0,0,0-2,1.93Z"/><path class="cls-2" d="M74,36h0c.25-.4.5-.79.75-1.15L76.87,32h3.89L77,35.87l4.26,5.67h-4l-2.52-3.92-.82,1v3H70.73V27.71H74Z"/><path class="cls-2" d="M85.64,28.41v5.05H91V28.41h3.24V41.54H91V36H85.64v5.5H82.39V28.41Z"/><path class="cls-2" d="M106.69,38.48c0,1.24,0,2.27.09,3.06H104l-.15-1.35h-.07a3.74,3.74,0,0,1-3.24,1.56c-2.11,0-3.66-1.21-3.66-4.14V32h3.25v5.13c0,1.39.48,2.23,1.63,2.23a1.7,1.7,0,0,0,1.6-1,1.39,1.39,0,0,0,.12-.63V32h3.24Z"/><path class="cls-2" d="M109.21,41.54c.05-.63.09-1.77.09-2.85v-11h3.24v5.43h0a3.79,3.79,0,0,1,3.14-1.35c2.5,0,4.32,1.89,4.3,4.81a4.76,4.76,0,0,1-4.77,5.15,3.5,3.5,0,0,1-3.11-1.54h0L112,41.54Zm3.33-4a2.7,2.7,0,0,0,0,.52,2,2,0,0,0,1.91,1.42c1.37,0,2.23-1,2.23-2.7,0-1.48-.72-2.65-2.23-2.65a2,2,0,0,0-1.9,1.46,2.44,2.44,0,0,0-.06.55Z"/><path class="cls-3" d="M47.67,43.26l-1.07.62-8.54,4.93a2.13,2.13,0,0,1-2.13,0l-8.54-4.93A2.14,2.14,0,0,1,26.32,42V32.17a2.14,2.14,0,0,1,1.07-1.85l8.54-4.93a2.13,2.13,0,0,1,2.13,0l8.54,4.93,1.07.62V25.8l-9.25-5.34a2.85,2.85,0,0,0-2.85,0L23.3,27.55A2.83,2.83,0,0,0,21.87,30V44.19a2.86,2.86,0,0,0,1.43,2.46l12.27,7.09a2.85,2.85,0,0,0,2.85,0l9.25-5.34Z"/><path class="cls-3" d="M36.34,32.45l3.86-2.23-2.49-1.44a1.46,1.46,0,0,0-1.43,0l-6.13,3.54a.39.39,0,0,0-.1.08l3.19,1.84Z"/><path class="cls-3" d="M44.56,34.08h0a1.59,1.59,0,0,0-1.6-1.6,1.54,1.54,0,0,0-.74.19l-4.59,2.64a.3.3,0,0,0-.16.27v1.11a.33.33,0,0,0,.15.27l1.61.93a.34.34,0,0,0,.31,0L41.12,37h0l.07,0h0l.15-.1h0v2.33a.77.77,0,0,1-.39.67l-3.39,1.95v3.68l.08,0,6.16-3.55a1.47,1.47,0,0,0,.74-1.28Z"/><path class="cls-3" d="M33,39.82a.71.71,0,0,1-.35-.62v-4l-3.19-1.83s0,.09,0,.14v7.08a1.41,1.41,0,0,0,.71,1.23l6.13,3.55h0l.1,0V41.79Z"/></g></svg>