<svg xmlns="http://www.w3.org/2000/svg" viewBox="0 0 37.83 39.08"><defs><style>.cls-1{fill:#101b1d;}</style></defs><title>純logo</title><g id="圖層_4" data-name="圖層 4"><path class="cls-1" d="M32.08,25.54,31,26.15l-8.54,4.93a2.15,2.15,0,0,1-2.14,0L11.8,26.15a2.13,2.13,0,0,1-1.07-1.85V14.44a2.15,2.15,0,0,1,1.07-1.85l8.54-4.93a2.15,2.15,0,0,1,2.14,0L31,12.59l1.06.62V8.07L22.83,2.73a2.83,2.83,0,0,0-2.84,0L7.71,9.82a2.85,2.85,0,0,0-1.42,2.47V26.46a2.85,2.85,0,0,0,1.42,2.47L20,36a2.83,2.83,0,0,0,2.84,0l9.25-5.34Z"/><path class="cls-1" d="M20.75,14.72l3.86-2.23-2.49-1.44a1.44,1.44,0,0,0-1.42,0L14.56,14.6l-.1.07,3.19,1.84Z"/><path class="cls-1" d="M29,16.35h0a1.6,1.6,0,0,0-1.6-1.6,1.55,1.55,0,0,0-.75.19L22,17.58a.32.32,0,0,0-.16.27V19a.29.29,0,0,0,.16.27l1.6.93a.31.31,0,0,0,.32,0l1.59-.92h0l.07,0h0l.16-.09h0v2.33a.77.77,0,0,1-.39.66l-3.39,2v3.67l.08,0,6.16-3.55A1.46,1.46,0,0,0,29,22.89Z"/><path class="cls-1" d="M17.41,22.09a.7.7,0,0,1-.36-.61V17.53l-3.18-1.84a.68.68,0,0,0,0,.14v7.09a1.44,1.44,0,0,0,.71,1.23l6.14,3.54h0l.09,0V24.06Z"/></g></svg>