<svg xmlns="http://www.w3.org/2000/svg" viewBox="0 0 154.25 74.2"><defs><style>.cls-1{font-size:3.81px;font-family:DFNYuan-MXB-HKP-BF, DFNYuan MXB-HKP-BF;letter-spacing:2.13em;}.cls-1,.cls-2{fill:#231815;}.cls-3{fill:#101b1d;}</style></defs><title>logo＿調設計</title><g id="圖層_4" data-name="圖層 4"><text class="cls-1" transform="translate(55.79 46.59)">集氪股份有限公司</text><path class="cls-2" d="M68.48,40.74a17.18,17.18,0,0,1-4.79.74c-2.62,0-4.51-.6-5.83-1.77a6.17,6.17,0,0,1-2-4.78c0-4.37,3.49-6.85,8.18-6.85a10.89,10.89,0,0,1,4,.63l-.68,2.38A8.62,8.62,0,0,0,64,30.53c-2.7,0-4.75,1.39-4.75,4.25s1.87,4.3,4.52,4.3a5.38,5.38,0,0,0,1.59-.18V36.14H63.13V33.82h5.35Z"/><path class="cls-2" d="M73.52,37.53c.09,1.23,1.42,1.81,2.93,1.81a9.43,9.43,0,0,0,2.87-.4l.43,2a10.92,10.92,0,0,1-3.77.6c-3.52,0-5.55-1.88-5.55-4.85a5,5,0,0,1,5.25-5.11c3.37,0,4.65,2.41,4.65,4.77a5,5,0,0,1-.12,1.17Zm3.8-2a1.77,1.77,0,0,0-1.82-1.93,2,2,0,0,0-2,1.93Z"/><path class="cls-2" d="M84.75,37.53c.09,1.23,1.42,1.81,2.93,1.81a9.43,9.43,0,0,0,2.87-.4L91,41a10.92,10.92,0,0,1-3.77.6c-3.53,0-5.55-1.88-5.55-4.85a5,5,0,0,1,5.25-5.11c3.37,0,4.65,2.41,4.65,4.77a5,5,0,0,1-.12,1.17Zm3.8-2a1.77,1.77,0,0,0-1.82-1.93,2,2,0,0,0-2,1.93Z"/><path class="cls-2" d="M96.72,35.84h0c.24-.41.5-.8.75-1.15l2.11-2.88h3.88l-3.73,3.87L104,41.34h-4l-2.51-3.91-.82.94v3H93.48V27.51h3.24Z"/><path class="cls-2" d="M108.38,28.21v5h5.35v-5H117V41.34h-3.24V35.85h-5.35v5.49h-3.24V28.21Z"/><path class="cls-2" d="M129.44,38.29c0,1.24,0,2.26.08,3.05h-2.8L126.57,40h-.07a3.77,3.77,0,0,1-3.24,1.56c-2.12,0-3.66-1.21-3.66-4.14V31.81h3.24v5.12c0,1.4.49,2.23,1.63,2.23a1.72,1.72,0,0,0,1.61-1,1.51,1.51,0,0,0,.12-.63V31.81h3.24Z"/><path class="cls-2" d="M132,41.34c0-.63.08-1.76.08-2.84v-11h3.24v5.43h0a3.8,3.8,0,0,1,3.15-1.35c2.5,0,4.32,1.9,4.29,4.82,0,3.43-2.37,5.15-4.76,5.15A3.48,3.48,0,0,1,134.89,40h0l-.13,1.32Zm3.32-4a2.12,2.12,0,0,0,.06.52,1.94,1.94,0,0,0,1.9,1.41c1.38,0,2.24-1,2.24-2.7,0-1.48-.73-2.65-2.23-2.65a1.94,1.94,0,0,0-1.9,1.46,2.43,2.43,0,0,0-.07.55Z"/><path class="cls-3" d="M47.67,43.45l-1.07.62L38.06,49a2.13,2.13,0,0,1-2.13,0l-8.54-4.93a2.14,2.14,0,0,1-1.07-1.85V32.36a2.14,2.14,0,0,1,1.07-1.85l8.54-4.93a2.13,2.13,0,0,1,2.13,0l8.54,4.93,1.07.62V26l-9.25-5.34a2.85,2.85,0,0,0-2.85,0L23.3,27.74a2.86,2.86,0,0,0-1.43,2.46V44.38a2.86,2.86,0,0,0,1.43,2.46l12.27,7.09a2.85,2.85,0,0,0,2.85,0l9.25-5.34Z"/><path class="cls-3" d="M36.34,32.64l3.86-2.23L37.71,29a1.46,1.46,0,0,0-1.43,0l-6.13,3.54a.39.39,0,0,0-.1.08l3.19,1.84Z"/><path class="cls-3" d="M44.56,34.27h0a1.59,1.59,0,0,0-1.6-1.6,1.54,1.54,0,0,0-.74.19L37.62,35.5a.3.3,0,0,0-.16.27v1.11a.32.32,0,0,0,.15.27l1.61.93a.34.34,0,0,0,.31,0l1.59-.92h0l.07,0h0l.15-.09h0v2.33A.77.77,0,0,1,41,40L37.58,42v3.68l.08,0,6.16-3.55a1.47,1.47,0,0,0,.74-1.28Z"/><path class="cls-3" d="M33,40a.71.71,0,0,1-.35-.62v-4l-3.19-1.83s0,.09,0,.14v7.08a1.44,1.44,0,0,0,.71,1.24l6.13,3.54h0l.1,0V42Z"/></g></svg>