<svg xmlns="http://www.w3.org/2000/svg" viewBox="0 0 154.25 74.2"><defs><style>.cls-1{font-size:3.81px;font-family:DFNYuan-MXB-HKP-BF, DFNYuan MXB-HKP-BF;letter-spacing:0.28em;}.cls-1,.cls-2{fill:#231815;}.cls-3{fill:#101b1d;}</style></defs><title>logo＿調設計</title><g id="圖層_4" data-name="圖層 4"><text class="cls-1" transform="translate(83.28 47.14)">集氪股份有限公司</text><path class="cls-2" d="M51.77,37.92c.1,1.23,1.43,1.81,2.94,1.81a9.37,9.37,0,0,0,2.86-.4l.44,2a10.76,10.76,0,0,1-3.77.61c-3.53,0-5.56-1.89-5.56-4.86A5,5,0,0,1,53.93,32c3.38,0,4.65,2.4,4.65,4.76a5,5,0,0,1-.12,1.18Zm3.8-2A1.76,1.76,0,0,0,53.76,34a2,2,0,0,0-2,1.93Z"/><path class="cls-2" d="M63,37.92c.1,1.23,1.42,1.81,2.94,1.81a9.37,9.37,0,0,0,2.86-.4l.44,2a10.78,10.78,0,0,1-3.78.61c-3.52,0-5.55-1.89-5.55-4.86A5,5,0,0,1,65.16,32c3.37,0,4.65,2.4,4.65,4.76a5,5,0,0,1-.12,1.18Zm3.8-2A1.77,1.77,0,0,0,65,34a2.05,2.05,0,0,0-2,1.93Z"/><path class="cls-2" d="M75,36.22h0c.25-.4.5-.79.75-1.14l2.11-2.89h3.89L78,36.06l4.26,5.67h-4l-2.52-3.92-.82.95v3H71.73V27.9H75Z"/><path class="cls-2" d="M86.64,28.6v5H92v-5h3.24V41.73H92V36.24H86.64v5.49H83.39V28.6Z"/><path class="cls-2" d="M107.69,38.67c0,1.25,0,2.27.09,3.06H105l-.15-1.34h-.07A3.77,3.77,0,0,1,101.51,42c-2.11,0-3.66-1.22-3.66-4.15V32.19h3.25v5.13c0,1.39.48,2.23,1.63,2.23a1.7,1.7,0,0,0,1.6-1,1.39,1.39,0,0,0,.12-.63V32.19h3.24Z"/><path class="cls-2" d="M110.21,41.73c.05-.63.09-1.77.09-2.85v-11h3.24v5.43h0A3.79,3.79,0,0,1,116.72,32c2.5,0,4.32,1.89,4.3,4.81,0,3.44-2.38,5.16-4.77,5.16a3.51,3.51,0,0,1-3.11-1.55h0L113,41.73Zm3.33-4a2.7,2.7,0,0,0,0,.52,2,2,0,0,0,1.91,1.42c1.37,0,2.23-1,2.23-2.7,0-1.48-.72-2.65-2.23-2.65a2,2,0,0,0-1.9,1.46,2.44,2.44,0,0,0-.06.55Z"/><path class="cls-3" d="M47.67,43.45l-1.07.62L38.06,49a2.13,2.13,0,0,1-2.13,0l-8.54-4.93a2.14,2.14,0,0,1-1.07-1.85V32.36a2.14,2.14,0,0,1,1.07-1.85l8.54-4.93a2.13,2.13,0,0,1,2.13,0l8.54,4.93,1.07.62V26l-9.25-5.34a2.85,2.85,0,0,0-2.85,0L23.3,27.74a2.86,2.86,0,0,0-1.43,2.46V44.38a2.86,2.86,0,0,0,1.43,2.46l12.27,7.09a2.85,2.85,0,0,0,2.85,0l9.25-5.34Z"/><path class="cls-3" d="M36.34,32.64l3.86-2.23L37.71,29a1.46,1.46,0,0,0-1.43,0l-6.13,3.54a.39.39,0,0,0-.1.08l3.19,1.84Z"/><path class="cls-3" d="M44.56,34.27h0a1.59,1.59,0,0,0-1.6-1.6,1.54,1.54,0,0,0-.74.19L37.62,35.5a.3.3,0,0,0-.16.27v1.11a.32.32,0,0,0,.15.27l1.61.93a.34.34,0,0,0,.31,0l1.59-.92h0l.07,0h0l.15-.09h0v2.33A.77.77,0,0,1,41,40L37.58,42v3.68l.08,0,6.16-3.55a1.47,1.47,0,0,0,.74-1.28Z"/><path class="cls-3" d="M33,40a.71.71,0,0,1-.35-.62v-4l-3.19-1.83s0,.09,0,.14v7.08a1.44,1.44,0,0,0,.71,1.24l6.13,3.54h0l.1,0V42Z"/></g></svg>